<?xml version="1.0" encoding="UTF-8"?>
<svg width="21px" height="21px" viewBox="0 0 21 21" version="1.1" xmlns="http://www.w3.org/2000/svg" xmlns:xlink="http://www.w3.org/1999/xlink">
    <!-- Generator: sketchtool 52.4 (67378) - http://www.bohemiancoding.com/sketch -->
    <title>F5A526E9-B20B-42F7-AA2B-116523317F9C</title>
    <desc>Created with sketchtool.</desc>
    <g id="Page-2" stroke="none" stroke-width="1" fill="none" fill-rule="evenodd">
        <g id="6-List-course" transform="translate(-99.000000, -165.000000)" fill-rule="nonzero">
            <g id="search_block" transform="translate(85.000000, 152.000000)">
                <g id="ic_search" transform="translate(12.000000, 12.000000)">
                    <rect id="Rectangle" x="0" y="0" width="24" height="24"></rect>
                    <path d="M8.71268695,13.3289436 C6.78337793,10.4168898 7.10156958,6.45477961 9.66726189,3.8890873 C12.5961941,0.960155109 17.3449314,0.960155109 20.2738636,3.8890873 C23.2027958,6.81801948 23.2027958,11.5667568 20.2738636,14.495689 C17.7081713,17.0613813 13.7460611,17.379573 10.8340073,15.450264 L4.71751442,21.5667568 C4.13172798,22.1525433 3.18198052,22.1525433 2.59619408,21.5667568 C2.01040764,20.9809704 2.01040764,20.0312229 2.59619408,19.4454365 L8.71268695,13.3289436 Z M11.0814755,13.0814755 C13.2293591,15.2293591 16.7117664,15.2293591 18.85965,13.0814755 C21.0075336,10.9335918 21.0075336,7.45118446 18.85965,5.30330086 C16.7117664,3.15541725 13.2293591,3.15541725 11.0814755,5.30330086 C8.93359185,7.45118446 8.93359185,10.9335918 11.0814755,13.0814755 Z" id="Combined-Shape" fill="#868996"></path>
                </g>
            </g>
        </g>
    </g>
</svg>